<?xml version="1.0" encoding="utf-8"?>
<!-- Generator: Adobe Illustrator 25.1.0, SVG Export Plug-In . SVG Version: 6.00 Build 0)  -->
<svg version="1.1" id="Capa_1" xmlns="http://www.w3.org/2000/svg" xmlns:xlink="http://www.w3.org/1999/xlink" x="0px" y="0px"
	 viewBox="0 0 36 60" style="enable-background:new 0 0 36 60;" xml:space="preserve">
<style type="text/css">
	.st0{fill:#EE3124;}
</style>
<g>
	<g>
		<path class="st0" d="M1.33,32.34l26.7,26.7c0.62,0.62,1.44,0.96,2.32,0.96s1.7-0.34,2.32-0.96l1.97-1.97
			c1.28-1.28,1.28-3.36,0-4.64L12.22,30.01L34.67,7.57c0.62-0.62,0.96-1.44,0.96-2.32c0-0.88-0.34-1.7-0.96-2.32L32.7,0.96
			C32.08,0.34,31.26,0,30.38,0s-1.7,0.34-2.32,0.96L1.33,27.68c-0.62,0.62-0.96,1.45-0.96,2.33C0.37,30.89,0.71,31.72,1.33,32.34z"
			/>
	</g>
</g>
</svg>
