<?xml version="1.0" encoding="utf-8"?>
<!-- Generator: Adobe Illustrator 25.1.0, SVG Export Plug-In . SVG Version: 6.00 Build 0)  -->
<svg version="1.1" id="Capa_1" xmlns="http://www.w3.org/2000/svg" xmlns:xlink="http://www.w3.org/1999/xlink" x="0px" y="0px"
	 viewBox="0 0 36 60" style="enable-background:new 0 0 36 60;" xml:space="preserve">
<style type="text/css">
	.st0{fill:#EE3124;}
</style>
<g>
	<g>
		<path class="st0" d="M34.67,27.66L7.97,0.96C7.35,0.34,6.52,0,5.65,0s-1.7,0.34-2.32,0.96L1.36,2.92c-1.28,1.28-1.28,3.36,0,4.64
			l22.42,22.42L1.33,52.43c-0.62,0.62-0.96,1.44-0.96,2.32c0,0.88,0.34,1.7,0.96,2.32l1.97,1.97C3.92,59.66,4.74,60,5.62,60
			s1.7-0.34,2.32-0.96l26.73-26.72c0.62-0.62,0.96-1.45,0.96-2.33C35.63,29.11,35.29,28.28,34.67,27.66z"/>
	</g>
</g>
</svg>
